<svg width="218" height="218" viewBox="0 0 218 218" fill="none" xmlns="http://www.w3.org/2000/svg">
<g clip-path="url(#clip0_1707_2675)">
<path d="M7.44489 104.54C9.25785 107.668 8.50559 156.347 20.8358 177.681C33.1708 199.016 45.9567 210.068 61.8467 213.236C77.732 216.401 81.3667 208.139 88.2922 206.032C95.2202 203.92 103.979 200.717 107.016 189.734C110.992 175.352 109.051 158.404 88.3466 139.398C67.6393 120.397 44.4595 113.174 31.4628 109.562C23.5737 107.371 15.5509 105.694 7.44489 104.54ZM11.1478 107.361L89.7669 205.491L85.5904 206.742L11.1478 107.361Z" fill="#82C043"/>
<path d="M199.247 0C196.023 5.21383 122.657 43.055 100.639 78.5617C78.6206 114.078 72.3349 142.036 80.3191 168.323C88.3034 194.601 103.563 193.42 112.256 202.086C120.958 210.751 132.757 221.279 151.605 217.028C176.285 211.46 200.065 194.992 211.9 148.83C223.727 102.669 215.97 62.239 210.965 39.9212C207.925 26.3751 204.011 13.0401 199.247 0ZM197.994 7.7935L114.245 203.857L109.032 198.616L197.994 7.7935Z" fill="#B9E466"/>
</g>
<defs>
<clipPath id="clip0_1707_2675">
<rect width="218" height="218" fill="white"/>
</clipPath>
</defs>
</svg>
