<svg width="512" height="512" viewBox="0 0 512 512" fill="none" xmlns="http://www.w3.org/2000/svg">
<path fill-rule="evenodd" clip-rule="evenodd" d="M256.005 103C187.732 103 145.073 137.002 127.997 205.007C153.601 171.004 183.468 158.256 217.6 166.752C237.073 171.598 250.999 185.673 266.399 201.257C291.501 226.633 320.556 256 384.003 256C452.265 256 494.934 221.998 512 154.003C486.407 188.006 456.539 200.754 422.408 192.248C402.924 187.402 388.999 173.327 373.599 157.753C348.497 132.357 319.452 103 256.005 103ZM127.997 256C59.7348 256 17.0657 290.002 0 358.007C25.6035 324.004 55.4709 311.256 89.5922 319.752C109.076 324.598 123.001 338.673 138.401 354.257C163.503 379.633 192.548 409 256.005 409C324.268 409 366.937 375.008 384.003 307.003C358.399 341.006 328.532 353.754 294.4 345.258C274.927 340.402 261.001 326.327 245.601 310.753C220.499 285.377 191.444 256 127.997 256Z" fill="#38BDF8"/>
</svg>
